HIERARCHY
ROOT hip
{
  OFFSET 0 0 0
  CHANNELS 6 Xposition Yposition Zposition Zrotation Yrotation Xrotation
  JOINT abdomen
  {
    OFFSET 0 20.6881 -0.73152
    CHANNELS 3 Zrotation Xrotation Yrotation
    JOINT chest
    {
      OFFSET 0 11.7043 -0.48768
      CHANNELS 3 Zrotation Xrotation Yrotation
      JOINT neck
      {
        OFFSET 0 22.1894 -2.19456
        CHANNELS 3 Zrotation Xrotation Yrotation
        JOINT head
        {
          OFFSET -0.24384 7.07133 1.2192
          CHANNELS 3 Zrotation Xrotation Yrotation
          JOINT leftEye
          {
            OFFSET 4.14528 8.04674 8.04672
            CHANNELS 3 Zrotation Xrotation Yrotation
            End Site
            {
              OFFSET 1 0 0
            }
          }
          JOINT rightEye
          {
            OFFSET -3.6576 8.04674 8.04672
            CHANNELS 3 Zrotation Xrotation Yrotation
            End Site
            {
              OFFSET 1 0 0
            }
          }
        }
      }
      JOINT rCollar
      {
        OFFSET -2.68224 19.2634 -4.8768
        CHANNELS 3 Zrotation Xrotation Yrotation
        JOINT rShldr
        {
          OFFSET -8.77824 -1.95073 1.46304
          CHANNELS 3 Zrotation Xrotation Yrotation
          JOINT rForeArm
          {
            OFFSET -28.1742 -1.7115 0.48768
            CHANNELS 3 Zrotation Xrotation Yrotation
            JOINT rHand
            {
              OFFSET -22.5879 0.773209 7.07136
              CHANNELS 3 Zrotation Xrotation Yrotation
              JOINT rThumb1
              {
                OFFSET -1.2192 -0.487915 3.41376
                CHANNELS 3 Zrotation Xrotation Yrotation
                JOINT rThumb2
                {
                  OFFSET -3.37035 -0.52449 3.41376
                  CHANNELS 3 Zrotation Xrotation Yrotation
                  End Site
                  {
                    OFFSET -1.78271 -1.18214 1.43049
                  }
                }
              }
              JOINT rIndex1
              {
                OFFSET -7.75947 0.938293 5.60832
                CHANNELS 3 Zrotation Xrotation Yrotation
                JOINT rIndex2
                {
                  OFFSET -2.54057 -0.884171 1.56538
                  CHANNELS 3 Zrotation Xrotation Yrotation
                  End Site
                  {
                    OFFSET -1.62519 -0.234802 1.16502
                  }
                }
              }
              JOINT rMid1
              {
                OFFSET -8.24714 1.18213 3.41376
                CHANNELS 3 Zrotation Xrotation Yrotation
                JOINT rMid2
                {
                  OFFSET -3.10165 -0.590103 1.0647
                  CHANNELS 3 Zrotation Xrotation Yrotation
                  End Site
                  {
                    OFFSET -2.48547 -0.328903 0.83742
                  }
                }
              }
              JOINT rRing1
              {
                OFFSET -8.82822 0.546677 1.51678
                CHANNELS 3 Zrotation Xrotation Yrotation
                JOINT rRing2
                {
                  OFFSET -2.60934 -0.819778 -0.0198488
                  CHANNELS 3 Zrotation Xrotation Yrotation
                  End Site
                  {
                    OFFSET -2.33842 -0.294052 0.168128
                  }
                }
              }
              JOINT rPinky1
              {
                OFFSET -8.27202 -0.0477905 -0.4584
                CHANNELS 3 Zrotation Xrotation Yrotation
                JOINT rPinky2
                {
                  OFFSET -1.82734 -0.647385 -0.700984
                  CHANNELS 3 Zrotation Xrotation Yrotation
                  End Site
                  {
                    OFFSET -1.69225 -0.51767 -0.607171
                  }
                }
              }
            }
          }
        }
      }
      JOINT lCollar
      {
        OFFSET 2.68224 19.2634 -4.8768
        CHANNELS 3 Zrotation Xrotation Yrotation
        JOINT lShldr
        {
          OFFSET 8.77824 -1.95073 1.46304
          CHANNELS 3 Zrotation Xrotation Yrotation
          JOINT lForeArm
          {
            OFFSET 28.1742 -1.7115 0.48768
            CHANNELS 3 Zrotation Xrotation Yrotation
            JOINT lHand
            {
              OFFSET 22.5879 0.773209 7.07136
              CHANNELS 3 Zrotation Xrotation Yrotation
              JOINT lThumb1
              {
                OFFSET 1.2192 -0.487915 3.41376
                CHANNELS 3 Zrotation Xrotation Yrotation
                JOINT lThumb2
                {
                  OFFSET 3.37035 -0.52449 3.41376
                  CHANNELS 3 Zrotation Xrotation Yrotation
                  End Site
                  {
                    OFFSET 1.78271 -1.18214 1.43049
                  }
                }
              }
              JOINT lIndex1
              {
                OFFSET 7.75947 0.938293 5.60832
                CHANNELS 3 Zrotation Xrotation Yrotation
                JOINT lIndex2
                {
                  OFFSET 2.54057 -0.884171 1.56538
                  CHANNELS 3 Zrotation Xrotation Yrotation
                  End Site
                  {
                    OFFSET 1.62519 -0.234802 1.16502
                  }
                }
              }
              JOINT lMid1
              {
                OFFSET 8.24714 1.18213 3.41376
                CHANNELS 3 Zrotation Xrotation Yrotation
                JOINT lMid2
                {
                  OFFSET 3.10165 -0.590103 1.0647
                  CHANNELS 3 Zrotation Xrotation Yrotation
                  End Site
                  {
                    OFFSET 2.48547 -0.328903 0.83742
                  }
                }
              }
              JOINT lRing1
              {
                OFFSET 8.82822 0.546677 1.51678
                CHANNELS 3 Zrotation Xrotation Yrotation
                JOINT lRing2
                {
                  OFFSET 2.60934 -0.819778 -0.0198488
                  CHANNELS 3 Zrotation Xrotation Yrotation
                  End Site
                  {
                    OFFSET 2.33842 -0.294052 0.168128
                  }
                }
              }
              JOINT lPinky1
              {
                OFFSET 8.27202 -0.0477905 -0.4584
                CHANNELS 3 Zrotation Xrotation Yrotation
                JOINT lPinky2
                {
                  OFFSET 1.82734 -0.647385 -0.700984
                  CHANNELS 3 Zrotation Xrotation Yrotation
                  End Site
                  {
                    OFFSET 1.69225 -0.51767 -0.607171
                  }
                }
              }
            }
          }
        }
      }
    }
  }
  JOINT rButtock
  {
    OFFSET -8.77824 4.35084 1.2192
    CHANNELS 3 Zrotation Xrotation Yrotation
    JOINT rThigh
    {
      OFFSET 0 -1.70687 -2.19456
      CHANNELS 3 Zrotation Xrotation Yrotation
      JOINT rShin
      {
        OFFSET 0 -36.8199 0.73152
        CHANNELS 3 Zrotation Xrotation Yrotation
        JOINT rFoot
        {
          OFFSET 0.73152 -45.1104 -5.12064
          CHANNELS 3 Zrotation Xrotation Yrotation
          End Site
          {
            OFFSET -1.1221 -3.69964 12.103
          }
        }
      }
    }
  }
  JOINT lButtock
  {
    OFFSET 8.77824 4.35084 1.2192
    CHANNELS 3 Zrotation Xrotation Yrotation
    JOINT lThigh
    {
      OFFSET 0 -1.70687 -2.19456
      CHANNELS 3 Zrotation Xrotation Yrotation
      JOINT lShin
      {
        OFFSET 0 -36.8199 0.73152
        CHANNELS 3 Zrotation Xrotation Yrotation
        JOINT lFoot
        {
          OFFSET -0.73152 -45.1104 -5.12064
          CHANNELS 3 Zrotation Xrotation Yrotation
          End Site
          {
            OFFSET 1.1221 -3.69964 12.103
          }
        }
      }
    }
  }
}
MOTION
Frames:	4
Frame Time:	0.03333
0.014870282262563705 -0.2340708076953888 0.054258082062006 -17.33890950679779 -2.756049558520317 0.9232445061206818 -1.7586708068847656 12.24995031952858 3.0337443575263023 2.088291496038437 -8.98541159927845 1.0149661637842655 -3.973347991704941 13.050585687160492 -3.728485107421875 8.37934099137783 -21.758404076099396 -5.395040810108185 -0.058102766051888466 0.30479416251182556 -0.33045317977666855 -0.1334281638264656 0.7321558892726898 0.3189778933301568 -0.12643497437238693 -0.4694249667227268 -0.2974730310961604 40.43700993061066 25.179768204689026 9.173833429813385 -22.587930858135223 -25.00260829925537 55.285579562187195 -3.208790011703968 -8.676329255104065 -3.644345887005329 0.18239461351186037 -0.14551964588463306 1.9316166266798973 0.6465771608054638 0.2828126843087375 -0.27547627687454224 0.34969878382980824 0.08822263218462467 0.41441671550273895 7.213148698210716 4.475482329726219 0.4815885750576854 0.30371838714927435 0.153094120323658 0.767158716917038 2.5712943077087402 1.1842460744082928 0.0612078420817852 -0.9900184348225594 0.6747415289282799 -0.19378188997507095 9.440363198518753 0.14648448675870895 -0.5972342379391193 -0.9223379194736481 0.33523673191666603 -0.27900568675249815 2.3155252262949944 -0.9325187467038631 -1.0723424702882767 -0.21033707074820995 0.411857720464468 0.005882754921913147 -49.21095013618469 26.03963077068329 -22.922552525997162 20.2172389626503 -20.981201827526093 -52.579911947250366 4.511826932430267 -11.640331149101257 2.517458852380514 -0.2743733860552311 -0.02179470844566822 -0.07470142794772983 0.6389919575303793 -0.6888819672167301 -1.095815822482109 -0.7340431585907936 0.5223957449197769 0.06969292648136616 -7.329915314912796 5.03174465149641 -0.19043474458158016 -0.03920702263712883 0.16616720706224442 -0.9822641685605049 -2.89542518556118 0.5689188279211521 -0.6691461056470871 -0.7922514528036118 0.4162281285971403 0.40076871402561665 -9.933042079210281 1.3867166452109814 -0.8463311567902565 -0.5594687350094318 -0.2734636142849922 0.06706318818032742 -3.2225313037633896 -0.12386851944029331 0.29935401398688555 0.12509596534073353 -0.15420013340190053 -0.6255102530121803 -29.84688699245453 -29.200994968414307 -23.33436816930771 -17.73367702960968 53.238882422447205 20.494198501110077 -4.6757591888308525 -9.713204205036163 -7.700446397066116 -1.0417357832193375 -1.1228732764720917 0.35351933911442757 32.21730798482895 -29.39688205718994 26.689889430999756 20.679045617580414 54.40083146095276 -16.756552308797836 5.466193780303001 -10.243509113788605 11.700883358716965
0.011005578562617302 -0.771614670753479 0.16107629612088203 -21.475549042224884 -0.876895934343338 4.38435360789299 -3.347330130636692 14.252695441246033 3.200092613697052 3.1576523557305336 -9.858633577823639 0.8282020222395658 -5.16989953815937 15.502497553825378 -3.876161500811577 8.572869077324867 -24.867272078990936 -5.60899592936039 -0.49674234353005886 -0.8941395208239555 -0.062396563589572906 -0.16135850921273232 0.08741067722439766 0.23197147529572248 0.41630901396274567 -0.012721549719572067 -0.6813551438972354 50.26711821556091 30.948175191879272 12.594662457704544 -24.21690344810486 -29.788076877593994 66.02725267410278 -5.086878128349781 -13.573157787322998 -5.053169131278992 -0.011782106012105942 0.4119137953966856 0.39162296801805496 0.2775616105645895 0.14468666282482445 0.13970889151096344 -0.04897906444966793 -0.35662131384015083 -0.4973660409450531 7.295823767781258 5.496408194303513 0.3222705773077905 0.40299230720847845 0.2245489228516817 0.3417687490582466 2.842245027422905 0.659624096006155 0.6055799312889576 0.5216386914253235 0.0023442506790161133 0.3558136336505413 10.252242386341095 0.147287892177701 0.15957199037075043 -0.20718757063150406 -0.12970861047506332 -0.06093190982937813 2.506248392164707 -0.7594897784292698 -0.08564997464418411 0.12116225436329842 -0.24817205965518951 -0.2159492578357458 -61.05297803878784 31.303959488868713 -23.788307905197144 22.65060603618622 -26.71775758266449 -61.65393769741058 6.386868730187416 -11.390723437070847 2.955269291996956 0.17895514145493507 0.06941934116184711 0.09478675201535225 -0.024221688508987427 0.08471153676509857 -0.24674378335475922 -0.06099008023738861 0.15933352522552013 -0.17019647173583508 -7.2926681488752365 5.362420454621315 -0.05319335963577032 -0.011983271688222885 -0.25140730664134026 -0.1785295084118843 -2.768247574567795 0.902185644954443 -0.3149307332932949 0.6814701855182648 -0.09496964514255524 0.0034957565367221832 -9.85052190721035 0.7547778077423573 -0.3817271254956722 0.1904495805501938 -0.2038698038086295 -0.05863560363650322 -2.5377594865858555 -0.35048517398536205 0.4103587009012699 -0.22138643078505993 -0.21102254278957844 0.28057951480150223 -35.22794544696808 -34.51894372701645 -29.929327368736267 -21.776979714632034 62.847638726234436 21.56902402639389 -4.593181349337101 -9.963856637477875 -9.398583099246025 -0.3009401634335518 -0.31088244169950485 -0.018396852537989616 40.337770879268646 -32.46242165565491 35.238524079322815 23.612199425697327 63.613243103027344 -22.935869693756104 5.49711998552084 -11.436323672533035 14.302509427070618
-0.980350436642766 -1.3441518545150757 0.3818577267229557 -42.17918515205383 -35.44097185134888 84.63793694972992 -5.801226496696472 16.406387239694595 4.1641804575920105 2.289954051375389 -9.370328709483147 0.1399269886314869 -5.367665514349937 14.796035885810852 -2.4328376725316048 5.758704766631126 -24.991463720798492 -2.212265208363533 -1.9112492725253105 1.1876891925930977 -0.5364352650940418 -0.44443574734032154 -0.43514465913176537 0.706500057131052 0.3716941550374031 0.09374404326081276 -0.8954916894435883 48.7078320980072 32.6571661233902 21.684935688972473 -23.89486938714981 -28.583056926727295 64.6455717086792 -4.718142785131931 -13.495093435049057 -2.78232179582119 0.5497728008776903 0.48865715973079205 -1.1989481002092361 1.420079804956913 0.5638604331761599 -2.01615147292614 -1.1193978041410446 0.9324538707733154 -0.2279287576675415 7.268940657377243 6.630253717303276 0.3247502585873008 -0.82298269495368 -0.6410039495676756 -0.4990043677389622 3.4202563762664795 0.6452720984816551 1.0141314938664436 0.6982976943254471 0.7048932462930679 -1.1532826535403728 9.560882896184921 -0.106273228302598 -0.05283482372760773 0.2509753033518791 -1.0385295376181602 -2.202182784676552 1.887705847620964 -0.6956731528043747 -1.7150765284895897 0.12446237727999687 0.8039398491382599 -0.7481960020959377 -42.88345009088516 31.692340672016144 -40.137675404548645 23.142029643058777 -28.085761964321136 -61.68814659118652 8.77577818930149 -11.627325117588043 2.307955529540777 0.6694574095308781 0.7841985393315554 1.0443163197487593 -0.1855478435754776 0.5469828844070435 -0.7885057479143143 1.0217724367976189 0.2973996475338936 0.20829842425882816 -6.533972471952438 5.111151449382305 -1.0534907318651676 -0.0703074038028717 0.12860236689448357 0.46841930598020554 -1.6136660613119602 1.6895092092454433 -0.9355077333748341 1.5954557061195374 -1.1150509491562843 -0.09253738448023796 -9.057572409510612 2.0507238060235977 -1.4881197363138199 -0.6216984987258911 -0.5568353086709976 0.12657118029892445 -2.434438280761242 -0.9912285301834345 0.23424305487424135 -0.3029834199696779 -0.5115450778976083 -0.045460090041160583 -23.527055382728577 -35.342910289764404 -20.312756448984146 -3.642227277159691 62.14622497558594 -3.4018470346927643 -5.250106975436211 -10.798819586634636 -12.077320665121078 0.01366451382637024 -0.5221462994813919 -1.239678869023919 35.5174657702446 -34.38640773296356 27.91243225336075 18.467411398887634 61.098865270614624 -18.528045415878296 7.188691645860672 -5.314455181360245 15.284553319215775
-2.2585867065936327 -1.7717787027359009 0.5919484682381153 -93.71794939041138 -72.06106960773468 156.85420989990234 -5.317782796919346 21.33867457509041 4.846477434039116 3.5148367658257484 -10.792072489857674 1.4191433787345886 -4.812259823083878 15.201567113399506 -2.1750110015273094 4.089520163834095 -29.672237634658813 0.07927369326353073 -4.1546716913580894 -0.3615245595574379 -0.13797970488667488 -2.146094609051943 -1.9179187528789043 2.0535741560161114 0.8759616874158382 -0.3287910483777523 -1.5802138857543468 31.9935742020607 37.627068758010864 38.78139764070511 -24.28206503391266 -23.457229435443878 57.770758867263794 5.952853113412857 -15.637676864862442 6.657449975609779 0.5372787360101938 1.3957924861460924 -3.819947764277458 -0.45380428433418274 -0.2865840378217399 -2.8962070494890213 -1.0729099251329899 2.062096707522869 0.5164767801761627 7.8011780977249146 6.1735499650239944 0.34505751449614763 -2.144333403557539 0.04620302002876997 0.5267788097262383 4.473137743771076 0.6749262660741806 -0.11594535782933235 0.08123539388179779 -0.06571244448423386 -1.279937233775854 7.895939201116562 1.6054680570960045 -1.3147038593888283 -0.30929088592529297 -0.17730910331010818 -2.8011680021882057 1.9050034135580063 0.13649476692080498 -1.5628031641244888 0.46384328976273537 1.0897117853164673 -0.7634559273719788 -34.59271788597107 28.968629837036133 -56.75953924655914 23.853265643119812 -30.24796038866043 -71.55366539955139 1.4743061922490597 -8.23366753757 -4.536753371357918 1.489288005977869 1.1931614018976688 5.902998894453049 -2.552531249821186 0.9663807973265648 -0.06100215017795563 0.8806164935231209 2.1037267707288265 0.4284244682639837 -6.532721221446991 4.323090612888336 -0.2736667077988386 -2.095687184482813 0.5005166307091713 1.5057150274515152 -0.1774381846189499 2.3299177922308445 -1.1064963787794113 2.3362382501363754 -1.6610747762024403 2.081946227699518 -8.470308780670166 0.7487031072378159 -2.4878715723752975 0.16406871378421783 -0.0541943684220314 0.8720301557332277 -1.297428421676159 -1.1569991055876017 2.4942324310541153 0.9703272487968206 0.5959490826353431 -1.0619175620377064 -18.77338707447052 -44.07129317522049 -16.245159655809402 -20.801479071378708 66.2723958492279 4.2049553990364075 -7.53525048494339 -6.732752323150635 -17.226339876651764 -0.8799715898931026 -0.3610219806432724 -0.6515220645815134 24.788584113121033 -40.333527624607086 20.228337943553925 22.60215997695923 58.24559569358826 -34.44299966096878 5.61054490506649 -1.586819663643837 21.65416270494461
